<mxfile host="Electron" modified="2024-02-06T14:40:04.743Z" agent="Mozilla/5.0 (X11; Linux x86_64) AppleWebKit/537.36 (KHTML, like Gecko) draw.io/22.1.21 Chrome/120.0.6099.109 Electron/28.1.0 Safari/537.36" etag="i7KYIx_ohCfJFymYRIJf" version="22.1.21" type="device">
  <diagram id="C5RBs43oDa-KdzZeNtuy" name="Page-1">
    <mxGraphModel dx="7170" dy="4410" grid="1" gridSize="10" guides="1" tooltips="1" connect="1" arrows="1" fold="1" page="1" pageScale="1" pageWidth="827" pageHeight="1169" math="0" shadow="0">
      <root>
        <mxCell id="WIyWlLk6GJQsqaUBKTNV-0" />
        <mxCell id="WIyWlLk6GJQsqaUBKTNV-1" parent="WIyWlLk6GJQsqaUBKTNV-0" />
        <mxCell id="nWd9DYiu0VlQMOzA8pWd-0" value="Manager.RenderManager.&lt;br&gt;RenderManager.beautify_zone()" style="swimlane;whiteSpace=wrap;html=1;startSize=30;" parent="WIyWlLk6GJQsqaUBKTNV-1" vertex="1">
          <mxGeometry x="10" y="70" width="540" height="1530" as="geometry">
            <mxRectangle x="80" y="890" width="250" height="30" as="alternateBounds" />
          </mxGeometry>
        </mxCell>
        <mxCell id="nWd9DYiu0VlQMOzA8pWd-16" style="edgeStyle=orthogonalEdgeStyle;rounded=0;orthogonalLoop=1;jettySize=auto;html=1;exitX=1;exitY=0.5;exitDx=0;exitDy=0;entryX=0.5;entryY=0;entryDx=0;entryDy=0;" parent="nWd9DYiu0VlQMOzA8pWd-0" source="nWd9DYiu0VlQMOzA8pWd-13" target="nWd9DYiu0VlQMOzA8pWd-15" edge="1">
          <mxGeometry relative="1" as="geometry" />
        </mxCell>
        <mxCell id="nWd9DYiu0VlQMOzA8pWd-17" value="No" style="edgeLabel;html=1;align=center;verticalAlign=middle;resizable=0;points=[];" parent="nWd9DYiu0VlQMOzA8pWd-16" vertex="1" connectable="0">
          <mxGeometry x="-0.1903" y="-1" relative="1" as="geometry">
            <mxPoint as="offset" />
          </mxGeometry>
        </mxCell>
        <mxCell id="nWd9DYiu0VlQMOzA8pWd-32" style="edgeStyle=orthogonalEdgeStyle;rounded=0;orthogonalLoop=1;jettySize=auto;html=1;exitX=0.5;exitY=1;exitDx=0;exitDy=0;entryX=0.5;entryY=0;entryDx=0;entryDy=0;" parent="nWd9DYiu0VlQMOzA8pWd-0" source="nWd9DYiu0VlQMOzA8pWd-13" target="nWd9DYiu0VlQMOzA8pWd-31" edge="1">
          <mxGeometry relative="1" as="geometry" />
        </mxCell>
        <mxCell id="nWd9DYiu0VlQMOzA8pWd-13" value="whole scene ?" style="rhombus;whiteSpace=wrap;html=1;" parent="nWd9DYiu0VlQMOzA8pWd-0" vertex="1">
          <mxGeometry x="130" y="60" width="80" height="80" as="geometry" />
        </mxCell>
        <mxCell id="nWd9DYiu0VlQMOzA8pWd-30" style="edgeStyle=orthogonalEdgeStyle;rounded=0;orthogonalLoop=1;jettySize=auto;html=1;exitX=0.5;exitY=1;exitDx=0;exitDy=0;entryX=0.5;entryY=0;entryDx=0;entryDy=0;" parent="nWd9DYiu0VlQMOzA8pWd-0" source="nWd9DYiu0VlQMOzA8pWd-15" target="nWd9DYiu0VlQMOzA8pWd-29" edge="1">
          <mxGeometry relative="1" as="geometry" />
        </mxCell>
        <mxCell id="nWd9DYiu0VlQMOzA8pWd-15" value="camera is ortho" style="rhombus;whiteSpace=wrap;html=1;" parent="nWd9DYiu0VlQMOzA8pWd-0" vertex="1">
          <mxGeometry x="270" y="160" width="80" height="80" as="geometry" />
        </mxCell>
        <mxCell id="nWd9DYiu0VlQMOzA8pWd-18" style="edgeStyle=orthogonalEdgeStyle;rounded=0;orthogonalLoop=1;jettySize=auto;html=1;exitX=1;exitY=0.5;exitDx=0;exitDy=0;entryX=0.5;entryY=0;entryDx=0;entryDy=0;" parent="nWd9DYiu0VlQMOzA8pWd-0" target="nWd9DYiu0VlQMOzA8pWd-20" edge="1">
          <mxGeometry relative="1" as="geometry">
            <mxPoint x="350" y="200" as="sourcePoint" />
            <mxPoint x="450" y="260" as="targetPoint" />
          </mxGeometry>
        </mxCell>
        <mxCell id="nWd9DYiu0VlQMOzA8pWd-19" value="No" style="edgeLabel;html=1;align=center;verticalAlign=middle;resizable=0;points=[];" parent="nWd9DYiu0VlQMOzA8pWd-18" vertex="1" connectable="0">
          <mxGeometry x="-0.1903" y="-1" relative="1" as="geometry">
            <mxPoint as="offset" />
          </mxGeometry>
        </mxCell>
        <mxCell id="nWd9DYiu0VlQMOzA8pWd-43" style="edgeStyle=orthogonalEdgeStyle;rounded=0;orthogonalLoop=1;jettySize=auto;html=1;exitX=0.5;exitY=1;exitDx=0;exitDy=0;" parent="nWd9DYiu0VlQMOzA8pWd-0" source="nWd9DYiu0VlQMOzA8pWd-20" edge="1">
          <mxGeometry relative="1" as="geometry">
            <mxPoint x="240" y="480" as="targetPoint" />
          </mxGeometry>
        </mxCell>
        <mxCell id="nWd9DYiu0VlQMOzA8pWd-20" value="&lt;div&gt;Create window to beautify from perspective camera parameters&lt;/div&gt;" style="whiteSpace=wrap;html=1;rounded=1;glass=0;strokeWidth=1;shadow=0;" parent="nWd9DYiu0VlQMOzA8pWd-0" vertex="1">
          <mxGeometry x="404" y="270" width="115" height="70" as="geometry" />
        </mxCell>
        <mxCell id="nWd9DYiu0VlQMOzA8pWd-42" style="edgeStyle=orthogonalEdgeStyle;rounded=0;orthogonalLoop=1;jettySize=auto;html=1;exitX=0.5;exitY=1;exitDx=0;exitDy=0;" parent="nWd9DYiu0VlQMOzA8pWd-0" source="nWd9DYiu0VlQMOzA8pWd-29" edge="1">
          <mxGeometry relative="1" as="geometry">
            <mxPoint x="240" y="480" as="targetPoint" />
          </mxGeometry>
        </mxCell>
        <mxCell id="nWd9DYiu0VlQMOzA8pWd-29" value="&lt;div&gt;Create window to beautify from orthographic camera parameters&lt;/div&gt;" style="whiteSpace=wrap;html=1;rounded=1;glass=0;strokeWidth=1;shadow=0;" parent="nWd9DYiu0VlQMOzA8pWd-0" vertex="1">
          <mxGeometry x="252.5" y="270" width="115" height="70" as="geometry" />
        </mxCell>
        <mxCell id="nWd9DYiu0VlQMOzA8pWd-31" value="&lt;div&gt;Window is whole scene&lt;/div&gt;" style="whiteSpace=wrap;html=1;rounded=1;glass=0;strokeWidth=1;shadow=0;" parent="nWd9DYiu0VlQMOzA8pWd-0" vertex="1">
          <mxGeometry x="112.5" y="270" width="115" height="30" as="geometry" />
        </mxCell>
        <mxCell id="nWd9DYiu0VlQMOzA8pWd-45" style="edgeStyle=orthogonalEdgeStyle;rounded=0;orthogonalLoop=1;jettySize=auto;html=1;exitX=0.5;exitY=1;exitDx=0;exitDy=0;entryX=0.5;entryY=0;entryDx=0;entryDy=0;" parent="nWd9DYiu0VlQMOzA8pWd-0" source="nWd9DYiu0VlQMOzA8pWd-38" target="nWd9DYiu0VlQMOzA8pWd-44" edge="1">
          <mxGeometry relative="1" as="geometry" />
        </mxCell>
        <mxCell id="nWd9DYiu0VlQMOzA8pWd-38" value="Select normal buildings to render" style="rounded=1;whiteSpace=wrap;html=1;fontSize=12;glass=0;strokeWidth=1;shadow=0;" parent="nWd9DYiu0VlQMOzA8pWd-0" vertex="1">
          <mxGeometry x="180" y="480" width="120" height="30" as="geometry" />
        </mxCell>
        <mxCell id="nWd9DYiu0VlQMOzA8pWd-39" style="edgeStyle=orthogonalEdgeStyle;rounded=0;orthogonalLoop=1;jettySize=auto;html=1;exitX=0.5;exitY=1;exitDx=0;exitDy=0;" parent="nWd9DYiu0VlQMOzA8pWd-0" source="nWd9DYiu0VlQMOzA8pWd-31" target="nWd9DYiu0VlQMOzA8pWd-38" edge="1">
          <mxGeometry relative="1" as="geometry">
            <Array as="points">
              <mxPoint x="170" y="410" />
              <mxPoint x="240" y="410" />
            </Array>
          </mxGeometry>
        </mxCell>
        <mxCell id="nWd9DYiu0VlQMOzA8pWd-54" style="edgeStyle=orthogonalEdgeStyle;rounded=0;orthogonalLoop=1;jettySize=auto;html=1;exitX=0.5;exitY=1;exitDx=0;exitDy=0;entryX=0.5;entryY=0;entryDx=0;entryDy=0;" parent="nWd9DYiu0VlQMOzA8pWd-0" source="nWd9DYiu0VlQMOzA8pWd-44" target="nWd9DYiu0VlQMOzA8pWd-49" edge="1">
          <mxGeometry relative="1" as="geometry" />
        </mxCell>
        <mxCell id="nWd9DYiu0VlQMOzA8pWd-44" value="Render normal buildings" style="rounded=1;whiteSpace=wrap;html=1;fontSize=12;glass=0;strokeWidth=1;shadow=0;" parent="nWd9DYiu0VlQMOzA8pWd-0" vertex="1">
          <mxGeometry x="180" y="540" width="120" height="30" as="geometry" />
        </mxCell>
        <mxCell id="nWd9DYiu0VlQMOzA8pWd-49" value="Select churches to render" style="rounded=1;whiteSpace=wrap;html=1;fontSize=12;glass=0;strokeWidth=1;shadow=0;" parent="nWd9DYiu0VlQMOzA8pWd-0" vertex="1">
          <mxGeometry x="180" y="620" width="120" height="30" as="geometry" />
        </mxCell>
        <mxCell id="XBrvubIOwSxENSqEJ7tH-21" style="edgeStyle=orthogonalEdgeStyle;rounded=0;orthogonalLoop=1;jettySize=auto;html=1;exitX=0.5;exitY=1;exitDx=0;exitDy=0;entryX=0.5;entryY=0;entryDx=0;entryDy=0;" parent="nWd9DYiu0VlQMOzA8pWd-0" source="nWd9DYiu0VlQMOzA8pWd-50" target="XBrvubIOwSxENSqEJ7tH-3" edge="1">
          <mxGeometry relative="1" as="geometry" />
        </mxCell>
        <mxCell id="nWd9DYiu0VlQMOzA8pWd-50" value="Render churches" style="rounded=1;whiteSpace=wrap;html=1;fontSize=12;glass=0;strokeWidth=1;shadow=0;" parent="nWd9DYiu0VlQMOzA8pWd-0" vertex="1">
          <mxGeometry x="180" y="680" width="120" height="30" as="geometry" />
        </mxCell>
        <mxCell id="nWd9DYiu0VlQMOzA8pWd-48" style="edgeStyle=orthogonalEdgeStyle;rounded=0;orthogonalLoop=1;jettySize=auto;html=1;exitX=0.5;exitY=1;exitDx=0;exitDy=0;entryX=0.5;entryY=0;entryDx=0;entryDy=0;" parent="nWd9DYiu0VlQMOzA8pWd-0" source="nWd9DYiu0VlQMOzA8pWd-49" target="nWd9DYiu0VlQMOzA8pWd-50" edge="1">
          <mxGeometry relative="1" as="geometry" />
        </mxCell>
        <mxCell id="nWd9DYiu0VlQMOzA8pWd-51" style="edgeStyle=orthogonalEdgeStyle;rounded=0;orthogonalLoop=1;jettySize=auto;html=1;exitX=0.5;exitY=1;exitDx=0;exitDy=0;entryX=1;entryY=1;entryDx=0;entryDy=0;" parent="nWd9DYiu0VlQMOzA8pWd-0" source="nWd9DYiu0VlQMOzA8pWd-52" target="nWd9DYiu0VlQMOzA8pWd-50" edge="1">
          <mxGeometry relative="1" as="geometry">
            <Array as="points">
              <mxPoint x="735" y="740" />
              <mxPoint x="590" y="740" />
              <mxPoint x="590" y="710" />
            </Array>
          </mxGeometry>
        </mxCell>
        <mxCell id="nWd9DYiu0VlQMOzA8pWd-52" value="Renderer.BuildingRender.&lt;br&gt;ChurchRenderer.render()" style="swimlane;whiteSpace=wrap;html=1;startSize=30;" parent="nWd9DYiu0VlQMOzA8pWd-0" vertex="1">
          <mxGeometry x="620" y="640" width="230" height="80" as="geometry" />
        </mxCell>
        <mxCell id="nWd9DYiu0VlQMOzA8pWd-53" style="edgeStyle=orthogonalEdgeStyle;rounded=0;orthogonalLoop=1;jettySize=auto;html=1;exitX=1;exitY=0.5;exitDx=0;exitDy=0;entryX=0.5;entryY=0;entryDx=0;entryDy=0;" parent="nWd9DYiu0VlQMOzA8pWd-0" source="nWd9DYiu0VlQMOzA8pWd-50" target="nWd9DYiu0VlQMOzA8pWd-52" edge="1">
          <mxGeometry relative="1" as="geometry">
            <Array as="points">
              <mxPoint x="590" y="695" />
              <mxPoint x="590" y="620" />
              <mxPoint x="735" y="620" />
            </Array>
          </mxGeometry>
        </mxCell>
        <mxCell id="XBrvubIOwSxENSqEJ7tH-3" value="Select factories to render" style="rounded=1;whiteSpace=wrap;html=1;fontSize=12;glass=0;strokeWidth=1;shadow=0;" parent="nWd9DYiu0VlQMOzA8pWd-0" vertex="1">
          <mxGeometry x="180" y="750" width="120" height="30" as="geometry" />
        </mxCell>
        <mxCell id="XBrvubIOwSxENSqEJ7tH-22" style="edgeStyle=orthogonalEdgeStyle;rounded=0;orthogonalLoop=1;jettySize=auto;html=1;exitX=0.5;exitY=1;exitDx=0;exitDy=0;entryX=0.5;entryY=0;entryDx=0;entryDy=0;" parent="nWd9DYiu0VlQMOzA8pWd-0" source="XBrvubIOwSxENSqEJ7tH-4" target="XBrvubIOwSxENSqEJ7tH-12" edge="1">
          <mxGeometry relative="1" as="geometry" />
        </mxCell>
        <mxCell id="XBrvubIOwSxENSqEJ7tH-4" value="Render factories" style="rounded=1;whiteSpace=wrap;html=1;fontSize=12;glass=0;strokeWidth=1;shadow=0;" parent="nWd9DYiu0VlQMOzA8pWd-0" vertex="1">
          <mxGeometry x="180" y="810" width="120" height="30" as="geometry" />
        </mxCell>
        <mxCell id="XBrvubIOwSxENSqEJ7tH-5" style="edgeStyle=orthogonalEdgeStyle;rounded=0;orthogonalLoop=1;jettySize=auto;html=1;exitX=0.5;exitY=1;exitDx=0;exitDy=0;entryX=0.5;entryY=0;entryDx=0;entryDy=0;" parent="nWd9DYiu0VlQMOzA8pWd-0" source="XBrvubIOwSxENSqEJ7tH-3" target="XBrvubIOwSxENSqEJ7tH-4" edge="1">
          <mxGeometry relative="1" as="geometry" />
        </mxCell>
        <mxCell id="XBrvubIOwSxENSqEJ7tH-6" style="edgeStyle=orthogonalEdgeStyle;rounded=0;orthogonalLoop=1;jettySize=auto;html=1;exitX=0.5;exitY=1;exitDx=0;exitDy=0;entryX=1;entryY=1;entryDx=0;entryDy=0;" parent="nWd9DYiu0VlQMOzA8pWd-0" source="XBrvubIOwSxENSqEJ7tH-7" target="XBrvubIOwSxENSqEJ7tH-4" edge="1">
          <mxGeometry relative="1" as="geometry">
            <Array as="points">
              <mxPoint x="735" y="870" />
              <mxPoint x="590" y="870" />
              <mxPoint x="590" y="840" />
            </Array>
          </mxGeometry>
        </mxCell>
        <mxCell id="XBrvubIOwSxENSqEJ7tH-7" value="Renderer.BuildingRender.&lt;br&gt;FactoryRenderer.render()" style="swimlane;whiteSpace=wrap;html=1;startSize=30;" parent="nWd9DYiu0VlQMOzA8pWd-0" vertex="1">
          <mxGeometry x="620" y="770" width="230" height="80" as="geometry" />
        </mxCell>
        <mxCell id="XBrvubIOwSxENSqEJ7tH-8" style="edgeStyle=orthogonalEdgeStyle;rounded=0;orthogonalLoop=1;jettySize=auto;html=1;exitX=1;exitY=0.5;exitDx=0;exitDy=0;entryX=0.5;entryY=0;entryDx=0;entryDy=0;" parent="nWd9DYiu0VlQMOzA8pWd-0" source="XBrvubIOwSxENSqEJ7tH-4" target="XBrvubIOwSxENSqEJ7tH-7" edge="1">
          <mxGeometry relative="1" as="geometry">
            <Array as="points">
              <mxPoint x="590" y="825" />
              <mxPoint x="590" y="750" />
              <mxPoint x="735" y="750" />
            </Array>
          </mxGeometry>
        </mxCell>
        <mxCell id="XBrvubIOwSxENSqEJ7tH-9" style="edgeStyle=orthogonalEdgeStyle;rounded=0;orthogonalLoop=1;jettySize=auto;html=1;exitX=0.5;exitY=1;exitDx=0;exitDy=0;entryX=1;entryY=1;entryDx=0;entryDy=0;" parent="nWd9DYiu0VlQMOzA8pWd-0" source="XBrvubIOwSxENSqEJ7tH-10" target="XBrvubIOwSxENSqEJ7tH-7" edge="1">
          <mxGeometry relative="1" as="geometry">
            <Array as="points">
              <mxPoint x="1035" y="870" />
              <mxPoint x="900" y="870" />
              <mxPoint x="900" y="850" />
            </Array>
          </mxGeometry>
        </mxCell>
        <mxCell id="XBrvubIOwSxENSqEJ7tH-10" value="Renderer.BuildingRender.&lt;br&gt;BuildingRenderer.render()" style="swimlane;whiteSpace=wrap;html=1;startSize=30;fillColor=#6a00ff;fontColor=#ffffff;strokeColor=#3700CC;" parent="nWd9DYiu0VlQMOzA8pWd-0" vertex="1">
          <mxGeometry x="920" y="770" width="230" height="80" as="geometry" />
        </mxCell>
        <mxCell id="XBrvubIOwSxENSqEJ7tH-11" style="edgeStyle=orthogonalEdgeStyle;rounded=0;orthogonalLoop=1;jettySize=auto;html=1;exitX=1;exitY=0.5;exitDx=0;exitDy=0;entryX=0.5;entryY=0;entryDx=0;entryDy=0;" parent="nWd9DYiu0VlQMOzA8pWd-0" source="XBrvubIOwSxENSqEJ7tH-7" target="XBrvubIOwSxENSqEJ7tH-10" edge="1">
          <mxGeometry relative="1" as="geometry" />
        </mxCell>
        <mxCell id="XBrvubIOwSxENSqEJ7tH-12" value="Select malls to render" style="rounded=1;whiteSpace=wrap;html=1;fontSize=12;glass=0;strokeWidth=1;shadow=0;" parent="nWd9DYiu0VlQMOzA8pWd-0" vertex="1">
          <mxGeometry x="180" y="880" width="120" height="30" as="geometry" />
        </mxCell>
        <mxCell id="XBrvubIOwSxENSqEJ7tH-33" style="edgeStyle=orthogonalEdgeStyle;rounded=0;orthogonalLoop=1;jettySize=auto;html=1;exitX=0.5;exitY=1;exitDx=0;exitDy=0;entryX=0.5;entryY=0;entryDx=0;entryDy=0;" parent="nWd9DYiu0VlQMOzA8pWd-0" source="XBrvubIOwSxENSqEJ7tH-13" target="XBrvubIOwSxENSqEJ7tH-23" edge="1">
          <mxGeometry relative="1" as="geometry" />
        </mxCell>
        <mxCell id="XBrvubIOwSxENSqEJ7tH-13" value="Render malls" style="rounded=1;whiteSpace=wrap;html=1;fontSize=12;glass=0;strokeWidth=1;shadow=0;" parent="nWd9DYiu0VlQMOzA8pWd-0" vertex="1">
          <mxGeometry x="180" y="940" width="120" height="30" as="geometry" />
        </mxCell>
        <mxCell id="XBrvubIOwSxENSqEJ7tH-14" style="edgeStyle=orthogonalEdgeStyle;rounded=0;orthogonalLoop=1;jettySize=auto;html=1;exitX=0.5;exitY=1;exitDx=0;exitDy=0;entryX=0.5;entryY=0;entryDx=0;entryDy=0;" parent="nWd9DYiu0VlQMOzA8pWd-0" source="XBrvubIOwSxENSqEJ7tH-12" target="XBrvubIOwSxENSqEJ7tH-13" edge="1">
          <mxGeometry relative="1" as="geometry" />
        </mxCell>
        <mxCell id="XBrvubIOwSxENSqEJ7tH-15" style="edgeStyle=orthogonalEdgeStyle;rounded=0;orthogonalLoop=1;jettySize=auto;html=1;exitX=0.5;exitY=1;exitDx=0;exitDy=0;entryX=1;entryY=1;entryDx=0;entryDy=0;" parent="nWd9DYiu0VlQMOzA8pWd-0" source="XBrvubIOwSxENSqEJ7tH-16" target="XBrvubIOwSxENSqEJ7tH-13" edge="1">
          <mxGeometry relative="1" as="geometry">
            <Array as="points">
              <mxPoint x="735" y="1000" />
              <mxPoint x="590" y="1000" />
              <mxPoint x="590" y="970" />
            </Array>
          </mxGeometry>
        </mxCell>
        <mxCell id="XBrvubIOwSxENSqEJ7tH-16" value="Renderer.BuildingRender.&lt;br&gt;MallRenderer.render()" style="swimlane;whiteSpace=wrap;html=1;startSize=30;" parent="nWd9DYiu0VlQMOzA8pWd-0" vertex="1">
          <mxGeometry x="620" y="900" width="230" height="80" as="geometry" />
        </mxCell>
        <mxCell id="XBrvubIOwSxENSqEJ7tH-17" style="edgeStyle=orthogonalEdgeStyle;rounded=0;orthogonalLoop=1;jettySize=auto;html=1;exitX=1;exitY=0.5;exitDx=0;exitDy=0;entryX=0.5;entryY=0;entryDx=0;entryDy=0;" parent="nWd9DYiu0VlQMOzA8pWd-0" source="XBrvubIOwSxENSqEJ7tH-13" target="XBrvubIOwSxENSqEJ7tH-16" edge="1">
          <mxGeometry relative="1" as="geometry">
            <Array as="points">
              <mxPoint x="590" y="955" />
              <mxPoint x="590" y="880" />
              <mxPoint x="735" y="880" />
            </Array>
          </mxGeometry>
        </mxCell>
        <mxCell id="XBrvubIOwSxENSqEJ7tH-18" style="edgeStyle=orthogonalEdgeStyle;rounded=0;orthogonalLoop=1;jettySize=auto;html=1;exitX=0.5;exitY=1;exitDx=0;exitDy=0;entryX=1;entryY=1;entryDx=0;entryDy=0;" parent="nWd9DYiu0VlQMOzA8pWd-0" source="XBrvubIOwSxENSqEJ7tH-19" target="XBrvubIOwSxENSqEJ7tH-16" edge="1">
          <mxGeometry relative="1" as="geometry">
            <Array as="points">
              <mxPoint x="1035" y="1000" />
              <mxPoint x="900" y="1000" />
              <mxPoint x="900" y="980" />
            </Array>
          </mxGeometry>
        </mxCell>
        <mxCell id="XBrvubIOwSxENSqEJ7tH-19" value="Renderer.BuildingRender.&lt;br&gt;BuildingRenderer.render()" style="swimlane;whiteSpace=wrap;html=1;startSize=30;fillColor=#6a00ff;fontColor=#ffffff;strokeColor=#3700CC;" parent="nWd9DYiu0VlQMOzA8pWd-0" vertex="1">
          <mxGeometry x="920" y="900" width="230" height="80" as="geometry" />
        </mxCell>
        <mxCell id="XBrvubIOwSxENSqEJ7tH-20" style="edgeStyle=orthogonalEdgeStyle;rounded=0;orthogonalLoop=1;jettySize=auto;html=1;exitX=1;exitY=0.5;exitDx=0;exitDy=0;entryX=0.5;entryY=0;entryDx=0;entryDy=0;" parent="nWd9DYiu0VlQMOzA8pWd-0" source="XBrvubIOwSxENSqEJ7tH-16" target="XBrvubIOwSxENSqEJ7tH-19" edge="1">
          <mxGeometry relative="1" as="geometry" />
        </mxCell>
        <mxCell id="XBrvubIOwSxENSqEJ7tH-23" value="Select forests to render" style="rounded=1;whiteSpace=wrap;html=1;fontSize=12;glass=0;strokeWidth=1;shadow=0;" parent="nWd9DYiu0VlQMOzA8pWd-0" vertex="1">
          <mxGeometry x="180" y="1010" width="120" height="30" as="geometry" />
        </mxCell>
        <mxCell id="XBrvubIOwSxENSqEJ7tH-44" style="edgeStyle=orthogonalEdgeStyle;rounded=0;orthogonalLoop=1;jettySize=auto;html=1;exitX=0.5;exitY=1;exitDx=0;exitDy=0;entryX=0.5;entryY=0;entryDx=0;entryDy=0;" parent="nWd9DYiu0VlQMOzA8pWd-0" source="XBrvubIOwSxENSqEJ7tH-24" target="XBrvubIOwSxENSqEJ7tH-43" edge="1">
          <mxGeometry relative="1" as="geometry" />
        </mxCell>
        <mxCell id="XBrvubIOwSxENSqEJ7tH-24" value="Render forests" style="rounded=1;whiteSpace=wrap;html=1;fontSize=12;glass=0;strokeWidth=1;shadow=0;" parent="nWd9DYiu0VlQMOzA8pWd-0" vertex="1">
          <mxGeometry x="180" y="1070" width="120" height="30" as="geometry" />
        </mxCell>
        <mxCell id="XBrvubIOwSxENSqEJ7tH-25" style="edgeStyle=orthogonalEdgeStyle;rounded=0;orthogonalLoop=1;jettySize=auto;html=1;exitX=0.5;exitY=1;exitDx=0;exitDy=0;entryX=0.5;entryY=0;entryDx=0;entryDy=0;" parent="nWd9DYiu0VlQMOzA8pWd-0" source="XBrvubIOwSxENSqEJ7tH-23" target="XBrvubIOwSxENSqEJ7tH-24" edge="1">
          <mxGeometry relative="1" as="geometry" />
        </mxCell>
        <mxCell id="XBrvubIOwSxENSqEJ7tH-26" style="edgeStyle=orthogonalEdgeStyle;rounded=0;orthogonalLoop=1;jettySize=auto;html=1;exitX=0.5;exitY=1;exitDx=0;exitDy=0;entryX=1;entryY=1;entryDx=0;entryDy=0;" parent="nWd9DYiu0VlQMOzA8pWd-0" source="XBrvubIOwSxENSqEJ7tH-27" target="XBrvubIOwSxENSqEJ7tH-24" edge="1">
          <mxGeometry relative="1" as="geometry">
            <Array as="points">
              <mxPoint x="735" y="1130" />
              <mxPoint x="590" y="1130" />
              <mxPoint x="590" y="1100" />
            </Array>
          </mxGeometry>
        </mxCell>
        <mxCell id="XBrvubIOwSxENSqEJ7tH-27" value="Renderer.ForestsRenderer.&lt;br&gt;ForestRenderer.render()" style="swimlane;whiteSpace=wrap;html=1;startSize=30;" parent="nWd9DYiu0VlQMOzA8pWd-0" vertex="1">
          <mxGeometry x="620" y="1030" width="230" height="80" as="geometry" />
        </mxCell>
        <mxCell id="XBrvubIOwSxENSqEJ7tH-28" style="edgeStyle=orthogonalEdgeStyle;rounded=0;orthogonalLoop=1;jettySize=auto;html=1;exitX=1;exitY=0.5;exitDx=0;exitDy=0;entryX=0.5;entryY=0;entryDx=0;entryDy=0;" parent="nWd9DYiu0VlQMOzA8pWd-0" source="XBrvubIOwSxENSqEJ7tH-24" target="XBrvubIOwSxENSqEJ7tH-27" edge="1">
          <mxGeometry relative="1" as="geometry">
            <Array as="points">
              <mxPoint x="590" y="1085" />
              <mxPoint x="590" y="1010" />
              <mxPoint x="735" y="1010" />
            </Array>
          </mxGeometry>
        </mxCell>
        <mxCell id="XBrvubIOwSxENSqEJ7tH-29" style="edgeStyle=orthogonalEdgeStyle;rounded=0;orthogonalLoop=1;jettySize=auto;html=1;exitX=0.5;exitY=1;exitDx=0;exitDy=0;entryX=1;entryY=1;entryDx=0;entryDy=0;" parent="nWd9DYiu0VlQMOzA8pWd-0" source="XBrvubIOwSxENSqEJ7tH-30" target="XBrvubIOwSxENSqEJ7tH-27" edge="1">
          <mxGeometry relative="1" as="geometry">
            <Array as="points">
              <mxPoint x="1035" y="1130" />
              <mxPoint x="900" y="1130" />
              <mxPoint x="900" y="1110" />
            </Array>
          </mxGeometry>
        </mxCell>
        <mxCell id="XBrvubIOwSxENSqEJ7tH-30" value="Renderer.BaseRender.&lt;br&gt;BaseRenderer.render()" style="swimlane;whiteSpace=wrap;html=1;startSize=30;fillColor=#6a00ff;fontColor=#ffffff;strokeColor=#3700CC;" parent="nWd9DYiu0VlQMOzA8pWd-0" vertex="1">
          <mxGeometry x="920" y="1030" width="230" height="80" as="geometry" />
        </mxCell>
        <mxCell id="XBrvubIOwSxENSqEJ7tH-31" style="edgeStyle=orthogonalEdgeStyle;rounded=0;orthogonalLoop=1;jettySize=auto;html=1;exitX=1;exitY=0.5;exitDx=0;exitDy=0;entryX=0.5;entryY=0;entryDx=0;entryDy=0;" parent="nWd9DYiu0VlQMOzA8pWd-0" source="XBrvubIOwSxENSqEJ7tH-27" target="XBrvubIOwSxENSqEJ7tH-30" edge="1">
          <mxGeometry relative="1" as="geometry" />
        </mxCell>
        <mxCell id="XBrvubIOwSxENSqEJ7tH-34" value="Select lanes to render" style="rounded=1;whiteSpace=wrap;html=1;fontSize=12;glass=0;strokeWidth=1;shadow=0;" parent="nWd9DYiu0VlQMOzA8pWd-0" vertex="1">
          <mxGeometry x="180" y="1200.04" width="120" height="30" as="geometry" />
        </mxCell>
        <mxCell id="XBrvubIOwSxENSqEJ7tH-56" style="edgeStyle=orthogonalEdgeStyle;rounded=0;orthogonalLoop=1;jettySize=auto;html=1;exitX=0.5;exitY=1;exitDx=0;exitDy=0;" parent="nWd9DYiu0VlQMOzA8pWd-0" source="XBrvubIOwSxENSqEJ7tH-35" edge="1">
          <mxGeometry relative="1" as="geometry">
            <mxPoint x="240" y="1330" as="targetPoint" />
          </mxGeometry>
        </mxCell>
        <mxCell id="XBrvubIOwSxENSqEJ7tH-35" value="Render roads and cars" style="rounded=1;whiteSpace=wrap;html=1;fontSize=12;glass=0;strokeWidth=1;shadow=0;" parent="nWd9DYiu0VlQMOzA8pWd-0" vertex="1">
          <mxGeometry x="180" y="1260.04" width="120" height="30" as="geometry" />
        </mxCell>
        <mxCell id="XBrvubIOwSxENSqEJ7tH-36" style="edgeStyle=orthogonalEdgeStyle;rounded=0;orthogonalLoop=1;jettySize=auto;html=1;exitX=0.5;exitY=1;exitDx=0;exitDy=0;entryX=0.5;entryY=0;entryDx=0;entryDy=0;" parent="nWd9DYiu0VlQMOzA8pWd-0" source="XBrvubIOwSxENSqEJ7tH-34" target="XBrvubIOwSxENSqEJ7tH-35" edge="1">
          <mxGeometry relative="1" as="geometry" />
        </mxCell>
        <mxCell id="XBrvubIOwSxENSqEJ7tH-37" style="edgeStyle=orthogonalEdgeStyle;rounded=0;orthogonalLoop=1;jettySize=auto;html=1;exitX=0.5;exitY=1;exitDx=0;exitDy=0;entryX=1;entryY=1;entryDx=0;entryDy=0;" parent="nWd9DYiu0VlQMOzA8pWd-0" source="XBrvubIOwSxENSqEJ7tH-38" target="XBrvubIOwSxENSqEJ7tH-35" edge="1">
          <mxGeometry relative="1" as="geometry">
            <Array as="points">
              <mxPoint x="735" y="1320.04" />
              <mxPoint x="590" y="1320.04" />
              <mxPoint x="590" y="1290.04" />
            </Array>
          </mxGeometry>
        </mxCell>
        <mxCell id="XBrvubIOwSxENSqEJ7tH-38" value="Renderer.RoadsRenderer.&lt;br&gt;RoadRender.render()" style="swimlane;whiteSpace=wrap;html=1;startSize=30;fillColor=#6a00ff;fontColor=#ffffff;strokeColor=#3700CC;" parent="nWd9DYiu0VlQMOzA8pWd-0" vertex="1">
          <mxGeometry x="620" y="1220.04" width="230" height="80" as="geometry" />
        </mxCell>
        <mxCell id="XBrvubIOwSxENSqEJ7tH-39" style="edgeStyle=orthogonalEdgeStyle;rounded=0;orthogonalLoop=1;jettySize=auto;html=1;exitX=1;exitY=0.5;exitDx=0;exitDy=0;entryX=0.5;entryY=0;entryDx=0;entryDy=0;" parent="nWd9DYiu0VlQMOzA8pWd-0" source="XBrvubIOwSxENSqEJ7tH-35" target="XBrvubIOwSxENSqEJ7tH-38" edge="1">
          <mxGeometry relative="1" as="geometry">
            <Array as="points">
              <mxPoint x="590" y="1275.04" />
              <mxPoint x="590" y="1200.04" />
              <mxPoint x="735" y="1200.04" />
            </Array>
          </mxGeometry>
        </mxCell>
        <mxCell id="XBrvubIOwSxENSqEJ7tH-45" style="edgeStyle=orthogonalEdgeStyle;rounded=0;orthogonalLoop=1;jettySize=auto;html=1;exitX=0.5;exitY=1;exitDx=0;exitDy=0;entryX=0.5;entryY=0;entryDx=0;entryDy=0;" parent="nWd9DYiu0VlQMOzA8pWd-0" source="XBrvubIOwSxENSqEJ7tH-43" target="XBrvubIOwSxENSqEJ7tH-34" edge="1">
          <mxGeometry relative="1" as="geometry" />
        </mxCell>
        <mxCell id="XBrvubIOwSxENSqEJ7tH-43" value="Select roads to render" style="rounded=1;whiteSpace=wrap;html=1;fontSize=12;glass=0;strokeWidth=1;shadow=0;" parent="nWd9DYiu0VlQMOzA8pWd-0" vertex="1">
          <mxGeometry x="180" y="1140" width="120" height="30" as="geometry" />
        </mxCell>
        <mxCell id="XBrvubIOwSxENSqEJ7tH-47" value="Select still water to render" style="rounded=1;whiteSpace=wrap;html=1;fontSize=12;glass=0;strokeWidth=1;shadow=0;" parent="nWd9DYiu0VlQMOzA8pWd-0" vertex="1">
          <mxGeometry x="180" y="1330.04" width="120" height="30" as="geometry" />
        </mxCell>
        <mxCell id="XBrvubIOwSxENSqEJ7tH-48" value="Render still water" style="rounded=1;whiteSpace=wrap;html=1;fontSize=12;glass=0;strokeWidth=1;shadow=0;" parent="nWd9DYiu0VlQMOzA8pWd-0" vertex="1">
          <mxGeometry x="180" y="1390.04" width="120" height="30" as="geometry" />
        </mxCell>
        <mxCell id="XBrvubIOwSxENSqEJ7tH-49" style="edgeStyle=orthogonalEdgeStyle;rounded=0;orthogonalLoop=1;jettySize=auto;html=1;exitX=0.5;exitY=1;exitDx=0;exitDy=0;entryX=0.5;entryY=0;entryDx=0;entryDy=0;" parent="nWd9DYiu0VlQMOzA8pWd-0" source="XBrvubIOwSxENSqEJ7tH-47" target="XBrvubIOwSxENSqEJ7tH-48" edge="1">
          <mxGeometry relative="1" as="geometry" />
        </mxCell>
        <mxCell id="XBrvubIOwSxENSqEJ7tH-50" style="edgeStyle=orthogonalEdgeStyle;rounded=0;orthogonalLoop=1;jettySize=auto;html=1;exitX=0.5;exitY=1;exitDx=0;exitDy=0;entryX=1;entryY=1;entryDx=0;entryDy=0;" parent="nWd9DYiu0VlQMOzA8pWd-0" source="XBrvubIOwSxENSqEJ7tH-51" target="XBrvubIOwSxENSqEJ7tH-48" edge="1">
          <mxGeometry relative="1" as="geometry">
            <Array as="points">
              <mxPoint x="735" y="1450.04" />
              <mxPoint x="590" y="1450.04" />
              <mxPoint x="590" y="1420.04" />
            </Array>
          </mxGeometry>
        </mxCell>
        <mxCell id="XBrvubIOwSxENSqEJ7tH-51" value="Renderer.WaterRenderer.&lt;br&gt;StillWaterRenderer.render()" style="swimlane;whiteSpace=wrap;html=1;startSize=30;" parent="nWd9DYiu0VlQMOzA8pWd-0" vertex="1">
          <mxGeometry x="620" y="1350.04" width="230" height="80" as="geometry" />
        </mxCell>
        <mxCell id="XBrvubIOwSxENSqEJ7tH-52" style="edgeStyle=orthogonalEdgeStyle;rounded=0;orthogonalLoop=1;jettySize=auto;html=1;exitX=1;exitY=0.5;exitDx=0;exitDy=0;entryX=0.5;entryY=0;entryDx=0;entryDy=0;" parent="nWd9DYiu0VlQMOzA8pWd-0" source="XBrvubIOwSxENSqEJ7tH-48" target="XBrvubIOwSxENSqEJ7tH-51" edge="1">
          <mxGeometry relative="1" as="geometry">
            <Array as="points">
              <mxPoint x="590" y="1405.04" />
              <mxPoint x="590" y="1330.04" />
              <mxPoint x="735" y="1330.04" />
            </Array>
          </mxGeometry>
        </mxCell>
        <mxCell id="XBrvubIOwSxENSqEJ7tH-53" style="edgeStyle=orthogonalEdgeStyle;rounded=0;orthogonalLoop=1;jettySize=auto;html=1;exitX=0.5;exitY=1;exitDx=0;exitDy=0;entryX=1;entryY=1;entryDx=0;entryDy=0;" parent="nWd9DYiu0VlQMOzA8pWd-0" source="XBrvubIOwSxENSqEJ7tH-54" target="XBrvubIOwSxENSqEJ7tH-51" edge="1">
          <mxGeometry relative="1" as="geometry">
            <Array as="points">
              <mxPoint x="1035" y="1450.04" />
              <mxPoint x="900" y="1450.04" />
              <mxPoint x="900" y="1430.04" />
            </Array>
          </mxGeometry>
        </mxCell>
        <mxCell id="XBrvubIOwSxENSqEJ7tH-54" value="Renderer.BaseRender.&lt;br&gt;BaseRenderer.render()" style="swimlane;whiteSpace=wrap;html=1;startSize=30;fillColor=#6a00ff;fontColor=#ffffff;strokeColor=#3700CC;" parent="nWd9DYiu0VlQMOzA8pWd-0" vertex="1">
          <mxGeometry x="920" y="1350.04" width="230" height="80" as="geometry" />
        </mxCell>
        <mxCell id="XBrvubIOwSxENSqEJ7tH-55" style="edgeStyle=orthogonalEdgeStyle;rounded=0;orthogonalLoop=1;jettySize=auto;html=1;exitX=1;exitY=0.5;exitDx=0;exitDy=0;entryX=0.5;entryY=0;entryDx=0;entryDy=0;" parent="nWd9DYiu0VlQMOzA8pWd-0" source="XBrvubIOwSxENSqEJ7tH-51" target="XBrvubIOwSxENSqEJ7tH-54" edge="1">
          <mxGeometry relative="1" as="geometry" />
        </mxCell>
        <mxCell id="nWd9DYiu0VlQMOzA8pWd-47" style="edgeStyle=orthogonalEdgeStyle;rounded=0;orthogonalLoop=1;jettySize=auto;html=1;exitX=0.5;exitY=1;exitDx=0;exitDy=0;entryX=1;entryY=1;entryDx=0;entryDy=0;" parent="WIyWlLk6GJQsqaUBKTNV-1" source="nWd9DYiu0VlQMOzA8pWd-36" target="nWd9DYiu0VlQMOzA8pWd-44" edge="1">
          <mxGeometry relative="1" as="geometry">
            <Array as="points">
              <mxPoint x="745" y="670" />
              <mxPoint x="600" y="670" />
              <mxPoint x="600" y="640" />
            </Array>
          </mxGeometry>
        </mxCell>
        <mxCell id="nWd9DYiu0VlQMOzA8pWd-36" value="Renderer.BuildingRender.&lt;br&gt;BuildingRenderer.render()" style="swimlane;whiteSpace=wrap;html=1;startSize=30;fillColor=#6a00ff;fontColor=#ffffff;strokeColor=#3700CC;" parent="WIyWlLk6GJQsqaUBKTNV-1" vertex="1">
          <mxGeometry x="630" y="570" width="230" height="80" as="geometry" />
        </mxCell>
        <mxCell id="nWd9DYiu0VlQMOzA8pWd-46" style="edgeStyle=orthogonalEdgeStyle;rounded=0;orthogonalLoop=1;jettySize=auto;html=1;exitX=1;exitY=0.5;exitDx=0;exitDy=0;entryX=0.5;entryY=0;entryDx=0;entryDy=0;" parent="WIyWlLk6GJQsqaUBKTNV-1" source="nWd9DYiu0VlQMOzA8pWd-44" target="nWd9DYiu0VlQMOzA8pWd-36" edge="1">
          <mxGeometry relative="1" as="geometry">
            <Array as="points">
              <mxPoint x="600" y="625" />
              <mxPoint x="600" y="550" />
              <mxPoint x="745" y="550" />
            </Array>
          </mxGeometry>
        </mxCell>
        <mxCell id="XBrvubIOwSxENSqEJ7tH-2" style="edgeStyle=orthogonalEdgeStyle;rounded=0;orthogonalLoop=1;jettySize=auto;html=1;exitX=0.5;exitY=1;exitDx=0;exitDy=0;entryX=1;entryY=1;entryDx=0;entryDy=0;" parent="WIyWlLk6GJQsqaUBKTNV-1" source="XBrvubIOwSxENSqEJ7tH-0" target="nWd9DYiu0VlQMOzA8pWd-52" edge="1">
          <mxGeometry relative="1" as="geometry">
            <Array as="points">
              <mxPoint x="1045" y="810" />
              <mxPoint x="910" y="810" />
              <mxPoint x="910" y="790" />
            </Array>
          </mxGeometry>
        </mxCell>
        <mxCell id="XBrvubIOwSxENSqEJ7tH-0" value="Renderer.BuildingRender.&lt;br&gt;BuildingRenderer.render()" style="swimlane;whiteSpace=wrap;html=1;startSize=30;fillColor=#6a00ff;fontColor=#ffffff;strokeColor=#3700CC;" parent="WIyWlLk6GJQsqaUBKTNV-1" vertex="1">
          <mxGeometry x="930" y="710" width="230" height="80" as="geometry" />
        </mxCell>
        <mxCell id="XBrvubIOwSxENSqEJ7tH-1" style="edgeStyle=orthogonalEdgeStyle;rounded=0;orthogonalLoop=1;jettySize=auto;html=1;exitX=1;exitY=0.5;exitDx=0;exitDy=0;entryX=0.5;entryY=0;entryDx=0;entryDy=0;" parent="WIyWlLk6GJQsqaUBKTNV-1" source="nWd9DYiu0VlQMOzA8pWd-52" target="XBrvubIOwSxENSqEJ7tH-0" edge="1">
          <mxGeometry relative="1" as="geometry" />
        </mxCell>
        <mxCell id="XBrvubIOwSxENSqEJ7tH-57" value="Manager.RenderManager.&lt;br&gt;RenderManager.clean_zone()" style="swimlane;whiteSpace=wrap;html=1;startSize=30;" parent="WIyWlLk6GJQsqaUBKTNV-1" vertex="1">
          <mxGeometry x="10" y="1660" width="290" height="920" as="geometry">
            <mxRectangle x="80" y="890" width="250" height="30" as="alternateBounds" />
          </mxGeometry>
        </mxCell>
        <mxCell id="XBrvubIOwSxENSqEJ7tH-137" style="edgeStyle=orthogonalEdgeStyle;rounded=0;orthogonalLoop=1;jettySize=auto;html=1;exitX=0.5;exitY=1;exitDx=0;exitDy=0;entryX=0.5;entryY=0;entryDx=0;entryDy=0;" parent="XBrvubIOwSxENSqEJ7tH-57" source="XBrvubIOwSxENSqEJ7tH-75" target="XBrvubIOwSxENSqEJ7tH-78" edge="1">
          <mxGeometry relative="1" as="geometry" />
        </mxCell>
        <mxCell id="XBrvubIOwSxENSqEJ7tH-75" value="Clean normal buildings" style="rounded=1;whiteSpace=wrap;html=1;fontSize=12;glass=0;strokeWidth=1;shadow=0;" parent="XBrvubIOwSxENSqEJ7tH-57" vertex="1">
          <mxGeometry x="70" y="59.960000000000015" width="120" height="30" as="geometry" />
        </mxCell>
        <mxCell id="XBrvubIOwSxENSqEJ7tH-138" style="edgeStyle=orthogonalEdgeStyle;rounded=0;orthogonalLoop=1;jettySize=auto;html=1;exitX=0.5;exitY=1;exitDx=0;exitDy=0;" parent="XBrvubIOwSxENSqEJ7tH-57" source="XBrvubIOwSxENSqEJ7tH-78" target="XBrvubIOwSxENSqEJ7tH-85" edge="1">
          <mxGeometry relative="1" as="geometry" />
        </mxCell>
        <mxCell id="XBrvubIOwSxENSqEJ7tH-78" value="Clean churches" style="rounded=1;whiteSpace=wrap;html=1;fontSize=12;glass=0;strokeWidth=1;shadow=0;" parent="XBrvubIOwSxENSqEJ7tH-57" vertex="1">
          <mxGeometry x="70" y="199.96" width="120" height="30" as="geometry" />
        </mxCell>
        <mxCell id="XBrvubIOwSxENSqEJ7tH-80" style="edgeStyle=orthogonalEdgeStyle;rounded=0;orthogonalLoop=1;jettySize=auto;html=1;exitX=0.5;exitY=1;exitDx=0;exitDy=0;entryX=1;entryY=1;entryDx=0;entryDy=0;" parent="XBrvubIOwSxENSqEJ7tH-57" source="XBrvubIOwSxENSqEJ7tH-81" target="XBrvubIOwSxENSqEJ7tH-78" edge="1">
          <mxGeometry relative="1" as="geometry">
            <Array as="points">
              <mxPoint x="625" y="259.96" />
              <mxPoint x="480" y="259.96" />
              <mxPoint x="480" y="229.96" />
            </Array>
          </mxGeometry>
        </mxCell>
        <mxCell id="XBrvubIOwSxENSqEJ7tH-81" value="Renderer.BuildingRender.&lt;br&gt;ChurchRenderer.clear_object()" style="swimlane;whiteSpace=wrap;html=1;startSize=30;" parent="XBrvubIOwSxENSqEJ7tH-57" vertex="1">
          <mxGeometry x="510" y="159.96" width="230" height="80" as="geometry" />
        </mxCell>
        <mxCell id="XBrvubIOwSxENSqEJ7tH-82" style="edgeStyle=orthogonalEdgeStyle;rounded=0;orthogonalLoop=1;jettySize=auto;html=1;exitX=1;exitY=0.5;exitDx=0;exitDy=0;entryX=0.5;entryY=0;entryDx=0;entryDy=0;" parent="XBrvubIOwSxENSqEJ7tH-57" source="XBrvubIOwSxENSqEJ7tH-78" target="XBrvubIOwSxENSqEJ7tH-81" edge="1">
          <mxGeometry relative="1" as="geometry">
            <Array as="points">
              <mxPoint x="480" y="214.96" />
              <mxPoint x="480" y="139.96" />
              <mxPoint x="625" y="139.96" />
            </Array>
          </mxGeometry>
        </mxCell>
        <mxCell id="XBrvubIOwSxENSqEJ7tH-139" style="edgeStyle=orthogonalEdgeStyle;rounded=0;orthogonalLoop=1;jettySize=auto;html=1;exitX=0.5;exitY=1;exitDx=0;exitDy=0;entryX=0.5;entryY=0;entryDx=0;entryDy=0;" parent="XBrvubIOwSxENSqEJ7tH-57" source="XBrvubIOwSxENSqEJ7tH-85" target="XBrvubIOwSxENSqEJ7tH-95" edge="1">
          <mxGeometry relative="1" as="geometry" />
        </mxCell>
        <mxCell id="XBrvubIOwSxENSqEJ7tH-85" value="Clean factories" style="rounded=1;whiteSpace=wrap;html=1;fontSize=12;glass=0;strokeWidth=1;shadow=0;" parent="XBrvubIOwSxENSqEJ7tH-57" vertex="1">
          <mxGeometry x="70" y="329.96" width="120" height="30" as="geometry" />
        </mxCell>
        <mxCell id="XBrvubIOwSxENSqEJ7tH-87" style="edgeStyle=orthogonalEdgeStyle;rounded=0;orthogonalLoop=1;jettySize=auto;html=1;exitX=0.5;exitY=1;exitDx=0;exitDy=0;entryX=1;entryY=1;entryDx=0;entryDy=0;" parent="XBrvubIOwSxENSqEJ7tH-57" source="XBrvubIOwSxENSqEJ7tH-88" target="XBrvubIOwSxENSqEJ7tH-85" edge="1">
          <mxGeometry relative="1" as="geometry">
            <Array as="points">
              <mxPoint x="625" y="389.96" />
              <mxPoint x="480" y="389.96" />
              <mxPoint x="480" y="359.96" />
            </Array>
          </mxGeometry>
        </mxCell>
        <mxCell id="XBrvubIOwSxENSqEJ7tH-88" value="Renderer.BuildingRender.&lt;br&gt;FactoryRenderer.clear_object()" style="swimlane;whiteSpace=wrap;html=1;startSize=30;" parent="XBrvubIOwSxENSqEJ7tH-57" vertex="1">
          <mxGeometry x="510" y="289.96" width="230" height="80" as="geometry" />
        </mxCell>
        <mxCell id="XBrvubIOwSxENSqEJ7tH-89" style="edgeStyle=orthogonalEdgeStyle;rounded=0;orthogonalLoop=1;jettySize=auto;html=1;exitX=1;exitY=0.5;exitDx=0;exitDy=0;entryX=0.5;entryY=0;entryDx=0;entryDy=0;" parent="XBrvubIOwSxENSqEJ7tH-57" source="XBrvubIOwSxENSqEJ7tH-85" target="XBrvubIOwSxENSqEJ7tH-88" edge="1">
          <mxGeometry relative="1" as="geometry">
            <Array as="points">
              <mxPoint x="480" y="344.96" />
              <mxPoint x="480" y="269.96" />
              <mxPoint x="625" y="269.96" />
            </Array>
          </mxGeometry>
        </mxCell>
        <mxCell id="XBrvubIOwSxENSqEJ7tH-90" style="edgeStyle=orthogonalEdgeStyle;rounded=0;orthogonalLoop=1;jettySize=auto;html=1;exitX=0.5;exitY=1;exitDx=0;exitDy=0;entryX=1;entryY=1;entryDx=0;entryDy=0;" parent="XBrvubIOwSxENSqEJ7tH-57" source="XBrvubIOwSxENSqEJ7tH-91" target="XBrvubIOwSxENSqEJ7tH-88" edge="1">
          <mxGeometry relative="1" as="geometry">
            <Array as="points">
              <mxPoint x="925" y="389.96" />
              <mxPoint x="790" y="389.96" />
              <mxPoint x="790" y="369.96" />
            </Array>
          </mxGeometry>
        </mxCell>
        <mxCell id="XBrvubIOwSxENSqEJ7tH-91" value="Renderer.BuildingRender.&lt;br&gt;BuildingRenderer.clear_object()" style="swimlane;whiteSpace=wrap;html=1;startSize=30;fillColor=#6a00ff;fontColor=#ffffff;strokeColor=#3700CC;" parent="XBrvubIOwSxENSqEJ7tH-57" vertex="1">
          <mxGeometry x="810" y="289.96" width="230" height="80" as="geometry" />
        </mxCell>
        <mxCell id="XBrvubIOwSxENSqEJ7tH-92" style="edgeStyle=orthogonalEdgeStyle;rounded=0;orthogonalLoop=1;jettySize=auto;html=1;exitX=1;exitY=0.5;exitDx=0;exitDy=0;entryX=0.5;entryY=0;entryDx=0;entryDy=0;" parent="XBrvubIOwSxENSqEJ7tH-57" source="XBrvubIOwSxENSqEJ7tH-88" target="XBrvubIOwSxENSqEJ7tH-91" edge="1">
          <mxGeometry relative="1" as="geometry" />
        </mxCell>
        <mxCell id="XBrvubIOwSxENSqEJ7tH-140" style="edgeStyle=orthogonalEdgeStyle;rounded=0;orthogonalLoop=1;jettySize=auto;html=1;exitX=0.5;exitY=1;exitDx=0;exitDy=0;entryX=0.5;entryY=0;entryDx=0;entryDy=0;" parent="XBrvubIOwSxENSqEJ7tH-57" source="XBrvubIOwSxENSqEJ7tH-95" target="XBrvubIOwSxENSqEJ7tH-105" edge="1">
          <mxGeometry relative="1" as="geometry" />
        </mxCell>
        <mxCell id="XBrvubIOwSxENSqEJ7tH-95" value="Clean malls" style="rounded=1;whiteSpace=wrap;html=1;fontSize=12;glass=0;strokeWidth=1;shadow=0;" parent="XBrvubIOwSxENSqEJ7tH-57" vertex="1">
          <mxGeometry x="70" y="459.96000000000004" width="120" height="30" as="geometry" />
        </mxCell>
        <mxCell id="XBrvubIOwSxENSqEJ7tH-97" style="edgeStyle=orthogonalEdgeStyle;rounded=0;orthogonalLoop=1;jettySize=auto;html=1;exitX=0.5;exitY=1;exitDx=0;exitDy=0;entryX=1;entryY=1;entryDx=0;entryDy=0;" parent="XBrvubIOwSxENSqEJ7tH-57" source="XBrvubIOwSxENSqEJ7tH-98" target="XBrvubIOwSxENSqEJ7tH-95" edge="1">
          <mxGeometry relative="1" as="geometry">
            <Array as="points">
              <mxPoint x="625" y="519.96" />
              <mxPoint x="480" y="519.96" />
              <mxPoint x="480" y="489.96000000000004" />
            </Array>
          </mxGeometry>
        </mxCell>
        <mxCell id="XBrvubIOwSxENSqEJ7tH-98" value="Renderer.BuildingRender.&lt;br&gt;MallRenderer.clear_object()" style="swimlane;whiteSpace=wrap;html=1;startSize=30;" parent="XBrvubIOwSxENSqEJ7tH-57" vertex="1">
          <mxGeometry x="510" y="419.96" width="230" height="80" as="geometry" />
        </mxCell>
        <mxCell id="XBrvubIOwSxENSqEJ7tH-99" style="edgeStyle=orthogonalEdgeStyle;rounded=0;orthogonalLoop=1;jettySize=auto;html=1;exitX=1;exitY=0.5;exitDx=0;exitDy=0;entryX=0.5;entryY=0;entryDx=0;entryDy=0;" parent="XBrvubIOwSxENSqEJ7tH-57" source="XBrvubIOwSxENSqEJ7tH-95" target="XBrvubIOwSxENSqEJ7tH-98" edge="1">
          <mxGeometry relative="1" as="geometry">
            <Array as="points">
              <mxPoint x="480" y="474.96000000000004" />
              <mxPoint x="480" y="399.96" />
              <mxPoint x="625" y="399.96" />
            </Array>
          </mxGeometry>
        </mxCell>
        <mxCell id="XBrvubIOwSxENSqEJ7tH-100" style="edgeStyle=orthogonalEdgeStyle;rounded=0;orthogonalLoop=1;jettySize=auto;html=1;exitX=0.5;exitY=1;exitDx=0;exitDy=0;entryX=1;entryY=1;entryDx=0;entryDy=0;" parent="XBrvubIOwSxENSqEJ7tH-57" source="XBrvubIOwSxENSqEJ7tH-101" target="XBrvubIOwSxENSqEJ7tH-98" edge="1">
          <mxGeometry relative="1" as="geometry">
            <Array as="points">
              <mxPoint x="925" y="519.96" />
              <mxPoint x="790" y="519.96" />
              <mxPoint x="790" y="499.96000000000004" />
            </Array>
          </mxGeometry>
        </mxCell>
        <mxCell id="XBrvubIOwSxENSqEJ7tH-101" value="Renderer.BuildingRender.&lt;br&gt;BuildingRenderer.clear_object()" style="swimlane;whiteSpace=wrap;html=1;startSize=30;fillColor=#6a00ff;fontColor=#ffffff;strokeColor=#3700CC;" parent="XBrvubIOwSxENSqEJ7tH-57" vertex="1">
          <mxGeometry x="810" y="419.96" width="230" height="80" as="geometry" />
        </mxCell>
        <mxCell id="XBrvubIOwSxENSqEJ7tH-102" style="edgeStyle=orthogonalEdgeStyle;rounded=0;orthogonalLoop=1;jettySize=auto;html=1;exitX=1;exitY=0.5;exitDx=0;exitDy=0;entryX=0.5;entryY=0;entryDx=0;entryDy=0;" parent="XBrvubIOwSxENSqEJ7tH-57" source="XBrvubIOwSxENSqEJ7tH-98" target="XBrvubIOwSxENSqEJ7tH-101" edge="1">
          <mxGeometry relative="1" as="geometry" />
        </mxCell>
        <mxCell id="XBrvubIOwSxENSqEJ7tH-141" style="edgeStyle=orthogonalEdgeStyle;rounded=0;orthogonalLoop=1;jettySize=auto;html=1;exitX=0.5;exitY=1;exitDx=0;exitDy=0;entryX=0.5;entryY=0;entryDx=0;entryDy=0;" parent="XBrvubIOwSxENSqEJ7tH-57" source="XBrvubIOwSxENSqEJ7tH-105" target="XBrvubIOwSxENSqEJ7tH-115" edge="1">
          <mxGeometry relative="1" as="geometry" />
        </mxCell>
        <mxCell id="XBrvubIOwSxENSqEJ7tH-105" value="Clean forests" style="rounded=1;whiteSpace=wrap;html=1;fontSize=12;glass=0;strokeWidth=1;shadow=0;" parent="XBrvubIOwSxENSqEJ7tH-57" vertex="1">
          <mxGeometry x="70" y="589.9600000000002" width="120" height="30" as="geometry" />
        </mxCell>
        <mxCell id="XBrvubIOwSxENSqEJ7tH-107" style="edgeStyle=orthogonalEdgeStyle;rounded=0;orthogonalLoop=1;jettySize=auto;html=1;exitX=0.5;exitY=1;exitDx=0;exitDy=0;entryX=1;entryY=1;entryDx=0;entryDy=0;" parent="XBrvubIOwSxENSqEJ7tH-57" source="XBrvubIOwSxENSqEJ7tH-108" target="XBrvubIOwSxENSqEJ7tH-105" edge="1">
          <mxGeometry relative="1" as="geometry">
            <Array as="points">
              <mxPoint x="625" y="649.9600000000002" />
              <mxPoint x="480" y="649.9600000000002" />
              <mxPoint x="480" y="619.9600000000002" />
            </Array>
          </mxGeometry>
        </mxCell>
        <mxCell id="XBrvubIOwSxENSqEJ7tH-108" value="Renderer.ForestsRenderer.&lt;br&gt;ForestRenderer.clear_object()" style="swimlane;whiteSpace=wrap;html=1;startSize=30;" parent="XBrvubIOwSxENSqEJ7tH-57" vertex="1">
          <mxGeometry x="510" y="549.9600000000002" width="230" height="80" as="geometry" />
        </mxCell>
        <mxCell id="XBrvubIOwSxENSqEJ7tH-109" style="edgeStyle=orthogonalEdgeStyle;rounded=0;orthogonalLoop=1;jettySize=auto;html=1;exitX=1;exitY=0.5;exitDx=0;exitDy=0;entryX=0.5;entryY=0;entryDx=0;entryDy=0;" parent="XBrvubIOwSxENSqEJ7tH-57" source="XBrvubIOwSxENSqEJ7tH-105" target="XBrvubIOwSxENSqEJ7tH-108" edge="1">
          <mxGeometry relative="1" as="geometry">
            <Array as="points">
              <mxPoint x="480" y="604.9600000000002" />
              <mxPoint x="480" y="529.96" />
              <mxPoint x="625" y="529.96" />
            </Array>
          </mxGeometry>
        </mxCell>
        <mxCell id="XBrvubIOwSxENSqEJ7tH-110" style="edgeStyle=orthogonalEdgeStyle;rounded=0;orthogonalLoop=1;jettySize=auto;html=1;exitX=0.5;exitY=1;exitDx=0;exitDy=0;entryX=1;entryY=1;entryDx=0;entryDy=0;" parent="XBrvubIOwSxENSqEJ7tH-57" source="XBrvubIOwSxENSqEJ7tH-111" target="XBrvubIOwSxENSqEJ7tH-108" edge="1">
          <mxGeometry relative="1" as="geometry">
            <Array as="points">
              <mxPoint x="925" y="649.9600000000002" />
              <mxPoint x="790" y="649.9600000000002" />
              <mxPoint x="790" y="629.9600000000002" />
            </Array>
          </mxGeometry>
        </mxCell>
        <mxCell id="XBrvubIOwSxENSqEJ7tH-111" value="Renderer.BaseRender.&lt;br&gt;BaseRenderer.clear_object()" style="swimlane;whiteSpace=wrap;html=1;startSize=30;fillColor=#6a00ff;fontColor=#ffffff;strokeColor=#3700CC;" parent="XBrvubIOwSxENSqEJ7tH-57" vertex="1">
          <mxGeometry x="810" y="549.9600000000002" width="230" height="80" as="geometry" />
        </mxCell>
        <mxCell id="XBrvubIOwSxENSqEJ7tH-112" style="edgeStyle=orthogonalEdgeStyle;rounded=0;orthogonalLoop=1;jettySize=auto;html=1;exitX=1;exitY=0.5;exitDx=0;exitDy=0;entryX=0.5;entryY=0;entryDx=0;entryDy=0;" parent="XBrvubIOwSxENSqEJ7tH-57" source="XBrvubIOwSxENSqEJ7tH-108" target="XBrvubIOwSxENSqEJ7tH-111" edge="1">
          <mxGeometry relative="1" as="geometry" />
        </mxCell>
        <mxCell id="XBrvubIOwSxENSqEJ7tH-142" style="edgeStyle=orthogonalEdgeStyle;rounded=0;orthogonalLoop=1;jettySize=auto;html=1;exitX=0.5;exitY=1;exitDx=0;exitDy=0;entryX=0.5;entryY=0;entryDx=0;entryDy=0;" parent="XBrvubIOwSxENSqEJ7tH-57" source="XBrvubIOwSxENSqEJ7tH-115" target="XBrvubIOwSxENSqEJ7tH-123" edge="1">
          <mxGeometry relative="1" as="geometry" />
        </mxCell>
        <mxCell id="XBrvubIOwSxENSqEJ7tH-115" value="Clean roads and cars" style="rounded=1;whiteSpace=wrap;html=1;fontSize=12;glass=0;strokeWidth=1;shadow=0;" parent="XBrvubIOwSxENSqEJ7tH-57" vertex="1">
          <mxGeometry x="70" y="725.0000000000001" width="120" height="30" as="geometry" />
        </mxCell>
        <mxCell id="XBrvubIOwSxENSqEJ7tH-117" style="edgeStyle=orthogonalEdgeStyle;rounded=0;orthogonalLoop=1;jettySize=auto;html=1;exitX=0.5;exitY=1;exitDx=0;exitDy=0;entryX=1;entryY=1;entryDx=0;entryDy=0;" parent="XBrvubIOwSxENSqEJ7tH-57" source="XBrvubIOwSxENSqEJ7tH-118" target="XBrvubIOwSxENSqEJ7tH-115" edge="1">
          <mxGeometry relative="1" as="geometry">
            <Array as="points">
              <mxPoint x="625" y="785.0000000000001" />
              <mxPoint x="480" y="785.0000000000001" />
              <mxPoint x="480" y="755.0000000000001" />
            </Array>
          </mxGeometry>
        </mxCell>
        <mxCell id="XBrvubIOwSxENSqEJ7tH-118" value="Renderer.RoadsRenderer.&lt;br&gt;RoadRender.clear_object()" style="swimlane;whiteSpace=wrap;html=1;startSize=30;fillColor=#6a00ff;fontColor=#ffffff;strokeColor=#3700CC;" parent="XBrvubIOwSxENSqEJ7tH-57" vertex="1">
          <mxGeometry x="510" y="685.0000000000001" width="230" height="80" as="geometry" />
        </mxCell>
        <mxCell id="XBrvubIOwSxENSqEJ7tH-119" style="edgeStyle=orthogonalEdgeStyle;rounded=0;orthogonalLoop=1;jettySize=auto;html=1;exitX=1;exitY=0.5;exitDx=0;exitDy=0;entryX=0.5;entryY=0;entryDx=0;entryDy=0;" parent="XBrvubIOwSxENSqEJ7tH-57" source="XBrvubIOwSxENSqEJ7tH-115" target="XBrvubIOwSxENSqEJ7tH-118" edge="1">
          <mxGeometry relative="1" as="geometry">
            <Array as="points">
              <mxPoint x="480" y="740.0000000000001" />
              <mxPoint x="480" y="665.0000000000001" />
              <mxPoint x="625" y="665.0000000000001" />
            </Array>
          </mxGeometry>
        </mxCell>
        <mxCell id="XBrvubIOwSxENSqEJ7tH-123" value="Clean still water" style="rounded=1;whiteSpace=wrap;html=1;fontSize=12;glass=0;strokeWidth=1;shadow=0;" parent="XBrvubIOwSxENSqEJ7tH-57" vertex="1">
          <mxGeometry x="70" y="855.0000000000001" width="120" height="30" as="geometry" />
        </mxCell>
        <mxCell id="XBrvubIOwSxENSqEJ7tH-125" style="edgeStyle=orthogonalEdgeStyle;rounded=0;orthogonalLoop=1;jettySize=auto;html=1;exitX=0.5;exitY=1;exitDx=0;exitDy=0;entryX=1;entryY=1;entryDx=0;entryDy=0;" parent="XBrvubIOwSxENSqEJ7tH-57" source="XBrvubIOwSxENSqEJ7tH-126" target="XBrvubIOwSxENSqEJ7tH-123" edge="1">
          <mxGeometry relative="1" as="geometry">
            <Array as="points">
              <mxPoint x="625" y="915.0000000000001" />
              <mxPoint x="480" y="915.0000000000001" />
              <mxPoint x="480" y="885.0000000000001" />
            </Array>
          </mxGeometry>
        </mxCell>
        <mxCell id="XBrvubIOwSxENSqEJ7tH-126" value="Renderer.WaterRenderer.&lt;br&gt;StillWaterRenderer.clear_object()" style="swimlane;whiteSpace=wrap;html=1;startSize=30;" parent="XBrvubIOwSxENSqEJ7tH-57" vertex="1">
          <mxGeometry x="510" y="815.0000000000001" width="230" height="80" as="geometry" />
        </mxCell>
        <mxCell id="XBrvubIOwSxENSqEJ7tH-127" style="edgeStyle=orthogonalEdgeStyle;rounded=0;orthogonalLoop=1;jettySize=auto;html=1;exitX=1;exitY=0.5;exitDx=0;exitDy=0;entryX=0.5;entryY=0;entryDx=0;entryDy=0;" parent="XBrvubIOwSxENSqEJ7tH-57" source="XBrvubIOwSxENSqEJ7tH-123" target="XBrvubIOwSxENSqEJ7tH-126" edge="1">
          <mxGeometry relative="1" as="geometry">
            <Array as="points">
              <mxPoint x="480" y="870.0000000000001" />
              <mxPoint x="480" y="795.0000000000001" />
              <mxPoint x="625" y="795.0000000000001" />
            </Array>
          </mxGeometry>
        </mxCell>
        <mxCell id="XBrvubIOwSxENSqEJ7tH-128" style="edgeStyle=orthogonalEdgeStyle;rounded=0;orthogonalLoop=1;jettySize=auto;html=1;exitX=0.5;exitY=1;exitDx=0;exitDy=0;entryX=1;entryY=1;entryDx=0;entryDy=0;" parent="XBrvubIOwSxENSqEJ7tH-57" source="XBrvubIOwSxENSqEJ7tH-129" target="XBrvubIOwSxENSqEJ7tH-126" edge="1">
          <mxGeometry relative="1" as="geometry">
            <Array as="points">
              <mxPoint x="925" y="915.0000000000001" />
              <mxPoint x="790" y="915.0000000000001" />
              <mxPoint x="790" y="895.0000000000001" />
            </Array>
          </mxGeometry>
        </mxCell>
        <mxCell id="XBrvubIOwSxENSqEJ7tH-129" value="Renderer.BaseRender.&lt;br&gt;BaseRenderer.clear_object()" style="swimlane;whiteSpace=wrap;html=1;startSize=30;fillColor=#6a00ff;fontColor=#ffffff;strokeColor=#3700CC;" parent="XBrvubIOwSxENSqEJ7tH-57" vertex="1">
          <mxGeometry x="810" y="815.0000000000001" width="230" height="80" as="geometry" />
        </mxCell>
        <mxCell id="XBrvubIOwSxENSqEJ7tH-130" style="edgeStyle=orthogonalEdgeStyle;rounded=0;orthogonalLoop=1;jettySize=auto;html=1;exitX=1;exitY=0.5;exitDx=0;exitDy=0;entryX=0.5;entryY=0;entryDx=0;entryDy=0;" parent="XBrvubIOwSxENSqEJ7tH-57" source="XBrvubIOwSxENSqEJ7tH-126" target="XBrvubIOwSxENSqEJ7tH-129" edge="1">
          <mxGeometry relative="1" as="geometry" />
        </mxCell>
        <mxCell id="XBrvubIOwSxENSqEJ7tH-131" style="edgeStyle=orthogonalEdgeStyle;rounded=0;orthogonalLoop=1;jettySize=auto;html=1;exitX=0.5;exitY=1;exitDx=0;exitDy=0;entryX=1;entryY=1;entryDx=0;entryDy=0;" parent="XBrvubIOwSxENSqEJ7tH-57" source="XBrvubIOwSxENSqEJ7tH-132" target="XBrvubIOwSxENSqEJ7tH-75" edge="1">
          <mxGeometry relative="1" as="geometry">
            <Array as="points">
              <mxPoint x="625" y="119.96000000000001" />
              <mxPoint x="480" y="119.96000000000001" />
              <mxPoint x="480" y="89.96000000000001" />
            </Array>
          </mxGeometry>
        </mxCell>
        <mxCell id="XBrvubIOwSxENSqEJ7tH-132" value="Renderer.BuildingRender.&lt;br&gt;BuildingRenderer.clear_object()" style="swimlane;whiteSpace=wrap;html=1;startSize=30;fillColor=#6a00ff;fontColor=#ffffff;strokeColor=#3700CC;" parent="XBrvubIOwSxENSqEJ7tH-57" vertex="1">
          <mxGeometry x="510" y="19.960000000000015" width="230" height="80" as="geometry" />
        </mxCell>
        <mxCell id="XBrvubIOwSxENSqEJ7tH-133" style="edgeStyle=orthogonalEdgeStyle;rounded=0;orthogonalLoop=1;jettySize=auto;html=1;exitX=1;exitY=0.5;exitDx=0;exitDy=0;entryX=0.5;entryY=0;entryDx=0;entryDy=0;" parent="XBrvubIOwSxENSqEJ7tH-57" source="XBrvubIOwSxENSqEJ7tH-75" target="XBrvubIOwSxENSqEJ7tH-132" edge="1">
          <mxGeometry relative="1" as="geometry">
            <Array as="points">
              <mxPoint x="480" y="74.96000000000001" />
              <mxPoint x="480" y="-0.039999999999984936" />
              <mxPoint x="625" y="-0.039999999999984936" />
            </Array>
          </mxGeometry>
        </mxCell>
        <mxCell id="XBrvubIOwSxENSqEJ7tH-134" style="edgeStyle=orthogonalEdgeStyle;rounded=0;orthogonalLoop=1;jettySize=auto;html=1;exitX=0.5;exitY=1;exitDx=0;exitDy=0;entryX=1;entryY=1;entryDx=0;entryDy=0;" parent="XBrvubIOwSxENSqEJ7tH-57" source="XBrvubIOwSxENSqEJ7tH-135" target="XBrvubIOwSxENSqEJ7tH-81" edge="1">
          <mxGeometry relative="1" as="geometry">
            <Array as="points">
              <mxPoint x="925" y="259.96" />
              <mxPoint x="790" y="259.96" />
              <mxPoint x="790" y="239.96" />
            </Array>
          </mxGeometry>
        </mxCell>
        <mxCell id="XBrvubIOwSxENSqEJ7tH-135" value="Renderer.BuildingRender.&lt;br&gt;BuildingRenderer.clear_object()" style="swimlane;whiteSpace=wrap;html=1;startSize=30;fillColor=#6a00ff;fontColor=#ffffff;strokeColor=#3700CC;" parent="XBrvubIOwSxENSqEJ7tH-57" vertex="1">
          <mxGeometry x="810" y="159.96" width="230" height="80" as="geometry" />
        </mxCell>
        <mxCell id="XBrvubIOwSxENSqEJ7tH-136" style="edgeStyle=orthogonalEdgeStyle;rounded=0;orthogonalLoop=1;jettySize=auto;html=1;exitX=1;exitY=0.5;exitDx=0;exitDy=0;entryX=0.5;entryY=0;entryDx=0;entryDy=0;" parent="XBrvubIOwSxENSqEJ7tH-57" source="XBrvubIOwSxENSqEJ7tH-81" target="XBrvubIOwSxENSqEJ7tH-135" edge="1">
          <mxGeometry relative="1" as="geometry" />
        </mxCell>
      </root>
    </mxGraphModel>
  </diagram>
</mxfile>
